<svg xmlns="http://www.w3.org/2000/svg" xmlns:xlink="http://www.w3.org/1999/xlink" viewBox="0 0 168 160"><defs><style>.cls-1{fill:url(#radial-gradient);}.cls-2{fill:#fca326;}.cls-3{fill:#fc6d26;}.cls-4{fill:#e24329;}</style><radialGradient id="radial-gradient" cx="84.03" cy="79.84" r="82.16" gradientUnits="userSpaceOnUse"><stop offset="0" stop-color="#6262cc"/><stop offset="0.86" stop-color="#34326c"/></radialGradient></defs><g id="Layer_1" data-name="Layer 1"><path class="cls-1" d="M145,28.45h16.29a3.46,3.46,0,1,0,.18-1.73h-15L163.48,6.38a3.58,3.58,0,0,0,1.19.21,3.46,3.46,0,1,0-2.62-1.2l-31,37v0H114.38V33.67a3.46,3.46,0,1,0-1.73,0v9.54a.87.87,0,0,0,.87.87H129.6L109.34,68.23l-5.66-17.42a1.92,1.92,0,0,0-1.85-1.33h0A1.93,1.93,0,0,0,100,50.82L93.92,69.5H74.36L68.28,50.82a1.93,1.93,0,0,0-1.84-1.34h0a1.92,1.92,0,0,0-1.85,1.34L58.87,68.41,38.46,44.08h16a.86.86,0,0,0,.86-.87V33.67a3.46,3.46,0,1,0-1.73,0v8.68H37L6,5.39a3.46,3.46,0,1,0-2.62,1.2,3.58,3.58,0,0,0,1.19-.21L21.65,26.72h-15a3.46,3.46,0,1,0,.18,1.73H23.1L57.52,69.5H6.66a3.45,3.45,0,1,0,.13,1.73H31.31v8.89H16.94A3.47,3.47,0,1,0,17,81.85H32.17A.86.86,0,0,0,33,81V71.23H58l-2.81,8.61a3,3,0,0,0,1.1,3.38L82.51,102.3,65.29,117H29.12a3.46,3.46,0,1,0,.18,1.73h34l-41.12,35a3.47,3.47,0,1,0,1.1,1.33l24.24-20.65h6.08v8.68a3.47,3.47,0,1,0,1.73,0v-9.54a.86.86,0,0,0-.86-.87H49.51L84,103.33l34.46,29.36h-4.91a.87.87,0,0,0-.87.87v9.54a3.47,3.47,0,1,0,1.73,0v-8.68h6.09l24.23,20.65a3.46,3.46,0,1,0,3.13-2,3.44,3.44,0,0,0-2,.66l-41.12-35h34a3.46,3.46,0,1,0,.18-1.73H102.66L85.57,102.42,112,83.22a3,3,0,0,0,1.1-3.38l-2.81-8.61H135V81a.86.86,0,0,0,.87.86h15.16a3.45,3.45,0,1,0,.07-1.73H136.75V71.23h24.52a3.47,3.47,0,1,0,.13-1.73H110.54Zm19.71-2.25a1.73,1.73,0,1,1-1.73,1.73A1.74,1.74,0,0,1,164.67,26.2Zm-52.88,4.13a1.73,1.73,0,1,1,1.73,1.73A1.72,1.72,0,0,1,111.79,30.33Zm-59.09,0a1.73,1.73,0,1,1,1.73,1.73A1.73,1.73,0,0,1,52.7,30.33ZM3.39,29.66a1.73,1.73,0,1,1,1.73-1.73A1.74,1.74,0,0,1,3.39,29.66Zm0,42.68a1.73,1.73,0,1,1,1.73-1.73A1.74,1.74,0,0,1,3.39,72.34ZM13.63,82.86a1.73,1.73,0,1,1,1.73-1.73A1.72,1.72,0,0,1,13.63,82.86Zm12.25,37.06a1.73,1.73,0,1,1,1.73-1.73A1.74,1.74,0,0,1,25.88,119.92Zm30.28,26.53a1.73,1.73,0,1,1-1.73-1.73A1.74,1.74,0,0,1,56.16,146.45Zm59.09,0a1.73,1.73,0,1,1-1.73-1.73A1.74,1.74,0,0,1,115.25,146.45Zm26.82-30a1.73,1.73,0,1,1-1.74,1.73A1.73,1.73,0,0,1,142.07,116.46ZM154.43,79.4a1.73,1.73,0,1,1-1.73,1.73A1.73,1.73,0,0,1,154.43,79.4Zm10.24-10.52a1.73,1.73,0,1,1-1.73,1.73A1.73,1.73,0,0,1,164.67,68.88Zm0-67.48a1.73,1.73,0,1,1-1.73,1.73A1.74,1.74,0,0,1,164.67,1.4ZM73.1,71.24,81.79,98,60.93,71.24ZM86.48,98l6.7-20.63,2-6.11h12.18L88.19,95.79Zm15.15-46.62a.18.18,0,0,1,.2-.15.21.21,0,0,1,.21.15l5.89,18.14H95.74ZM93.35,71.23,86.61,92l-2.47,7.6L74.92,71.23ZM66.22,51.36a.2.2,0,0,1,.21-.15h0a.18.18,0,0,1,.2.15L72.54,69.5H60.34ZM1.66,3.13A1.73,1.73,0,1,1,3.39,4.86,1.74,1.74,0,0,1,1.66,3.13ZM57.27,81.82a1.28,1.28,0,0,1-.47-1.44l2.66-8.19,20.21,25.9ZM20.11,158.27a1.73,1.73,0,1,1,1.73-1.73A1.74,1.74,0,0,1,20.11,158.27Zm127.72-3.46a1.73,1.73,0,1,1-1.73,1.73A1.73,1.73,0,0,1,147.83,154.81ZM111,81.82,88.59,98.09l2-2.57,18.2-23.33,2.66,8.18A1.3,1.3,0,0,1,111,81.82Z"/><g id="g64"><g id="path66"><path class="cls-2" d="M84.12,103.27a.86.86,0,0,1-.5-.17L56.25,83.22a3,3,0,0,1-1.1-3.38l3.17-9.73a.88.88,0,0,1,1.51-.27l25,32a.87.87,0,0,1-.69,1.4ZM59.46,72.19,56.8,80.38a1.28,1.28,0,0,0,.47,1.44l22.4,16.27Z"/></g></g><g id="g80"><g id="path82"><path class="cls-2" d="M84.14,103.26a.83.83,0,0,1-.62-.27.85.85,0,0,1-.06-1.13l25-32a.84.84,0,0,1,.83-.31.86.86,0,0,1,.67.58l3.17,9.73a3,3,0,0,1-1.1,3.38L84.65,103.09A.92.92,0,0,1,84.14,103.26ZM108.8,72.19,88.59,98.08,111,81.82a1.3,1.3,0,0,0,.46-1.45Z"/></g></g><g id="g56"><g id="path58"><path class="cls-3" d="M84.13,103.26a.86.86,0,0,1-.68-.34l-25-32a.86.86,0,0,1-.1-.91.87.87,0,0,1,.78-.49H73.72a.85.85,0,0,1,.82.6l10.41,32a.87.87,0,0,1-.42,1A.91.91,0,0,1,84.13,103.26Zm-23.21-32L81.79,98l-8.7-26.75Z"/></g></g><g id="g76"><g id="path78"><path class="cls-3" d="M84.14,103.26a1,1,0,0,1-.41-.1.88.88,0,0,1-.42-1l10.41-32a.87.87,0,0,1,.82-.6h14.59a.86.86,0,0,1,.68,1.4l-25,32A.86.86,0,0,1,84.14,103.26Zm11-32L86.48,98l20.88-26.75Z"/></g></g><g id="g48"><g id="path50"><path class="cls-4" d="M84.14,103.26a.87.87,0,0,1-.83-.6l-10.4-32a.86.86,0,0,1,.82-1.13H94.54a.88.88,0,0,1,.83,1.13L85,102.66A.87.87,0,0,1,84.14,103.26Zm-9.22-32,9.22,28.36,9.21-28.36Z"/></g></g><g id="g72"><g id="path74"><path class="cls-4" d="M73.73,71.24H59.15a.86.86,0,0,1-.7-.35.91.91,0,0,1-.13-.78l6.26-19.29a1.95,1.95,0,0,1,3.7,0l6.27,19.29a.87.87,0,0,1-.12.78A.86.86,0,0,1,73.73,71.24ZM60.34,69.51h12.2L66.63,51.36a.18.18,0,0,0-.2-.15.19.19,0,0,0-.21.15Z"/></g></g><g id="g84"><g id="path86"><path class="cls-4" d="M109.12,71.24H94.54a.86.86,0,0,1-.7-.35.87.87,0,0,1-.12-.78L100,50.82a1.93,1.93,0,0,1,1.84-1.34h0a1.92,1.92,0,0,1,1.85,1.33L110,70.11a.88.88,0,0,1-.13.78A.86.86,0,0,1,109.12,71.24ZM95.73,69.51h12.2L102,51.36a.2.2,0,0,0-.21-.15h0a.18.18,0,0,0-.2.15Z"/></g></g></g></svg>